<?xml version="1.0" standalone="no"?>
<!DOCTYPE svg PUBLIC "-//W3C//DTD SVG 20010904//EN"
 "http://www.w3.org/TR/2001/REC-SVG-20010904/DTD/svg10.dtd">
<svg version="1.0" xmlns="http://www.w3.org/2000/svg"
 width="165.000000pt" height="165.000000pt" viewBox="0 0 165.000000 165.000000"
 preserveAspectRatio="xMidYMid meet">
<metadata>
Created by potrace 1.11, written by Peter Selinger 2001-2013
</metadata>
<g transform="translate(0.000000,165.000000) scale(0.100000,-0.100000)"
fill="#000000" stroke="none">
<path d="M949 1573 c-2 -13 -6 -28 -8 -33 -3 -5 -8 -60 -12 -127 -3 -40 -14
-44 -17 -7 -3 42 -52 110 -95 133 -21 12 -41 21 -43 21 -6 0 1 -31 15 -65 7
-16 24 -59 37 -94 35 -91 76 -181 83 -181 3 0 6 -34 6 -75 0 -41 -2 -75 -5
-75 -3 0 -6 -18 -7 -40 -2 -48 -57 -135 -79 -126 -9 3 -12 1 -9 -4 3 -6 2 -10
-4 -10 -5 0 -14 7 -19 16 -13 24 -48 9 -64 -26 -15 -34 -37 -24 -32 15 3 29 3
29 -51 14 -50 -14 -71 -29 -54 -40 7 -4 21 -6 31 -4 17 4 23 -6 18 -30 -6 -33
-6 -186 0 -190 12 -8 41 6 34 16 -3 5 0 9 7 9 7 0 10 3 6 6 -6 7 15 72 41 124
18 37 42 67 42 53 0 -4 7 0 15 11 9 11 18 15 27 10 7 -5 20 -9 28 -9 12 0 15
-15 15 -75 1 -41 -2 -79 -4 -85 -3 -5 -6 -23 -7 -38 -2 -21 1 -27 12 -23 8 3
14 0 14 -6 0 -8 6 -6 16 4 16 16 19 39 29 208 2 47 5 85 5 85 1 0 3 10 6 23 6
34 44 105 65 122 11 8 48 35 83 60 36 25 71 56 80 70 24 40 48 70 93 115 35
34 40 45 29 54 -18 15 -106 6 -148 -15 -36 -19 -108 -91 -139 -139 -10 -16
-19 -26 -19 -21 0 6 -7 1 -16 -10 -8 -10 -13 -14 -10 -8 15 30 29 70 28 77 -1
4 1 7 6 7 7 0 6 147 -2 235 -3 28 -5 56 -5 63 -1 13 -20 17 -22 5z"/>
<path d="M1220 1166 c-5 -7 -12 -27 -15 -46 -3 -19 -10 -48 -15 -65 -5 -16
-12 -46 -15 -65 -3 -19 -8 -42 -10 -50 -2 -8 -7 -57 -10 -109 -3 -51 -8 -97
-11 -102 -3 -5 1 -9 8 -9 8 0 9 -3 3 -8 -13 -9 -11 -50 2 -63 16 -16 39 0 41
28 2 30 48 124 66 135 6 4 7 8 3 8 -4 0 4 11 19 25 15 14 29 23 32 20 2 -2 4
-25 4 -50 -2 -58 -41 -138 -93 -187 -41 -39 -47 -53 -26 -61 15 -5 150 127
140 137 -4 3 0 6 7 6 7 0 10 3 7 7 -4 3 -1 13 5 21 15 17 18 31 23 104 5 70
-10 91 -54 78 -32 -9 -90 -66 -91 -89 0 -10 -3 -11 -14 -2 -15 13 -15 49 3
151 5 30 7 58 4 63 -2 4 1 7 6 7 6 0 10 3 9 8 -3 13 14 56 29 74 8 9 13 23 11
29 -6 17 -55 20 -68 5z m0 -346 c0 -5 -2 -10 -4 -10 -3 0 -8 5 -11 10 -3 6 -1
10 4 10 6 0 11 -4 11 -10z"/>
<path d="M24 979 c-8 -14 14 -29 33 -22 15 6 15 4 17 -150 0 -60 -1 -112 -4
-117 -3 -4 -14 -9 -25 -11 -11 -3 -21 -11 -23 -19 -2 -13 11 -15 80 -15 52 1
83 5 86 13 2 6 -8 14 -22 18 -15 3 -28 17 -35 35 -5 16 -6 29 -2 29 4 0 6 14
3 30 -2 17 -3 30 -1 30 2 0 48 -42 102 -93 89 -85 138 -115 133 -83 -1 7 -24
35 -50 62 -66 67 -116 128 -116 143 0 21 91 121 116 127 12 3 21 11 18 18 -3
8 -29 12 -74 13 -73 0 -88 -11 -50 -35 21 -13 20 -13 -9 -45 -17 -18 -37 -41
-46 -52 -12 -17 -16 -18 -24 -5 -5 8 -7 19 -3 24 3 6 6 24 6 41 1 21 8 33 24
40 12 5 21 14 19 20 -5 14 -144 18 -153 4z"/>
<path d="M465 921 c-56 -16 -85 -66 -90 -153 -3 -55 -1 -61 30 -93 43 -46 89
-48 134 -6 34 32 43 81 15 81 -8 0 -13 -4 -10 -9 8 -13 -40 -61 -62 -61 -26 0
-52 31 -52 63 0 26 8 32 63 41 48 8 68 17 64 29 -2 7 -1 21 4 33 14 40 -48 88
-96 75z m45 -60 c-1 -37 -57 -70 -74 -43 -6 10 21 64 37 74 15 9 37 -10 37
-31z"/>
<path d="M1033 918 c-88 -24 -124 -213 -50 -261 29 -19 86 -16 117 6 13 9 20
17 15 17 -5 0 -4 5 3 12 18 18 16 59 -3 52 -8 -4 -15 -11 -15 -16 0 -20 -40
-46 -61 -41 -26 7 -37 36 -34 93 5 93 46 148 68 91 12 -33 43 -47 51 -24 22
57 -20 91 -91 71z"/>
<path d="M1504 918 c-3 -4 -10 -6 -15 -2 -5 3 -25 -10 -45 -30 -20 -20 -33
-40 -30 -45 4 -5 2 -12 -2 -15 -5 -3 -10 -35 -11 -71 -2 -57 1 -68 23 -90 28
-28 77 -33 120 -14 26 12 69 85 60 101 -3 4 -2 8 3 8 4 0 8 18 8 40 0 22 -3
40 -7 40 -4 0 -5 6 -2 14 8 21 -40 70 -70 72 -15 0 -29 -3 -32 -8z m37 -44
c16 -19 19 -128 5 -166 -10 -27 -37 -41 -62 -31 -20 7 -34 64 -20 82 9 12 8
13 -3 6 -10 -6 -12 -4 -6 5 5 7 9 25 10 39 7 74 43 105 76 65z"/>
<path d="M985 609 c-4 -5 -9 -21 -11 -35 -2 -13 -6 -35 -9 -49 -18 -90 -28
-196 -29 -320 -1 -104 0 -110 19 -109 55 3 80 12 83 28 3 13 -2 17 -20 14 -23
-3 -23 -2 -21 92 4 207 18 303 51 342 21 25 8 48 -27 48 -16 0 -33 -5 -36 -11z"/>
<path d="M1113 502 c-12 -2 -27 -10 -33 -17 -10 -12 -5 -17 27 -30 70 -28 119
-131 111 -232 -7 -78 -46 -114 -83 -77 -13 13 -15 30 -12 78 2 33 8 70 13 81
8 21 35 52 41 48 2 -2 3 -1 3 2 0 3 0 9 0 13 0 17 -42 5 -66 -19 -23 -24 -70
-149 -55 -149 4 0 8 -10 8 -22 4 -43 13 -66 30 -73 36 -15 66 -13 103 6 37 20
70 49 55 49 -4 0 -1 7 6 16 22 27 14 141 -15 199 -39 79 -96 133 -133 127z"/>
<path d="M425 444 c-67 -18 -91 -32 -120 -70 -92 -120 -3 -270 170 -288 11 -1
24 0 29 2 5 3 27 6 50 8 61 5 66 6 66 17 0 6 3 7 7 4 3 -4 12 -2 19 4 11 9 11
15 -1 32 -20 30 -19 36 7 57 21 17 21 19 6 25 -10 4 -15 12 -12 17 4 7 0 7
-12 0 -11 -5 -45 -8 -76 -7 -37 2 -58 -2 -61 -10 -3 -6 0 -12 6 -13 54 -5 76
-21 72 -54 -2 -17 -5 -31 -7 -33 -11 -10 -96 -11 -126 -1 -40 12 -116 81 -107
96 4 6 2 10 -3 10 -13 0 -5 65 12 98 21 41 126 99 126 70 0 -7 4 -7 13 -1 6 6
19 9 27 7 8 -2 23 -5 33 -7 21 -4 47 -26 64 -53 10 -16 14 -17 22 -5 5 8 8 26
6 40 -2 14 -4 29 -4 32 -1 10 -31 19 -80 25 -26 3 -53 7 -61 8 -8 2 -37 -2
-65 -10z"/>
<path d="M768 366 c-62 -27 -87 -80 -83 -178 2 -39 8 -63 20 -75 21 -20 92
-28 111 -12 8 6 14 8 14 5 0 -4 11 4 24 17 23 23 43 90 41 132 -4 60 -7 72
-24 94 -21 27 -64 34 -103 17z m65 -67 c15 -57 4 -140 -23 -161 -25 -20 -29
-21 -49 -9 -18 11 -25 151 -8 151 6 0 7 3 4 6 -4 4 1 19 10 34 22 37 54 27 66
-21z"/>
</g>
</svg>
